<?xml version="1.0" encoding="utf-8"?>
<!-- Generator: Adobe Illustrator 24.0.1, SVG Export Plug-In . SVG Version: 6.00 Build 0)  -->
<svg version="1.1" id="Layer_1" xmlns="http://www.w3.org/2000/svg" xmlns:xlink="http://www.w3.org/1999/xlink" x="0px" y="0px"
	 viewBox="0 0 874.2 1038.1" style="enable-background:new 0 0 874.2 1038.1;" xml:space="preserve">
<style type="text/css">
	.st0{opacity:0.5;}
	.st1{fill:#171717;}
</style>
<g id="Group_58642" transform="translate(13756.377 1941.002) rotate(16)" class="st0">
	<g id="Group_58641" transform="translate(-13474.221 1884.732)">
		<g id="Group_56263" transform="translate(-18.779 -68.115)">
			<path id="Path_746" class="st1" d="M24.9,1031.8H-1l96.7-867l25.6,2.9L24.9,1031.8z"/>
			<path id="Path_747" class="st1" d="M80.2,1023H54.3L141,211.5l25.6,2.8L80.2,1023z"/>
			<path id="Path_748" class="st1" d="M133.3,1022.9l-25.8,0.1l84.4-757.2l25.5,2.8L133.3,1022.9z"/>
			<path id="Path_752" class="st1" d="M780.8,750.8L110.6,34l3.7-33.6L798.5,732L780.8,750.8z"/>
			<path id="Path_753" class="st1" d="M780,821.5L102.8,102.3l3.8-33.5l691.2,734L780,821.5z"/>
			<path id="Path_754" class="st1" d="M747.7,868L95.3,169.2l3.7-33.4l666.2,713.5L747.7,868z"/>
			<path id="Path_755" class="st1" d="M315.8,1022.6L1271.3-1L315.8,1022.6z"/>
		</g>
	</g>
</g>
</svg>
