<?xml version="1.0" encoding="utf-8"?>
<!-- Generator: Adobe Illustrator 24.0.1, SVG Export Plug-In . SVG Version: 6.00 Build 0)  -->
<svg version="1.1" id="Layer_1" xmlns="http://www.w3.org/2000/svg" xmlns:xlink="http://www.w3.org/1999/xlink" x="0px" y="0px"
	 viewBox="0 0 30 30" style="enable-background:new 0 0 30 30;" xml:space="preserve">
<style type="text/css">
	.st0{fill:none;}
	.st1{fill:#FFFFFF;}
</style>
<g id="Instagram" transform="translate(22 547)">
	<rect id="Rectangle_22517" x="-22" y="-547" class="st0" width="30" height="30"/>
	<g id="Group_59043" transform="translate(-1211.712 -255.852)">
		<path id="Path_162452" class="st1" d="M1204.9-286.1c1.6,0,3.3,0,4.9,0c0.6,0,1.1,0.1,1.6,0.2c1.9,0.4,3.4,2,3.5,4
			c0.1,0.5,0.1,0.9,0.1,1.4c0,3.1,0,6.1,0,9.2c0,0.8-0.1,1.5-0.4,2.2c-0.5,1.7-2.1,2.9-3.9,2.9c-2.3,0.1-4.7,0.1-7,0.1
			c-1.6,0-3.1,0-4.7-0.1c-2.3-0.1-4.1-1.9-4.2-4.2c0-0.4-0.1-0.8-0.1-1.2c0-3.1,0-6.2,0-9.3c0-0.7,0.1-1.5,0.4-2.2
			c0.5-1.7,2.1-2.9,3.9-2.9c1.6-0.1,3.3-0.1,4.9-0.1C1204.2-286.2,1204.6-286.1,1204.9-286.1L1204.9-286.1z M1204.9-269.6
			c3.6,0,6.5-2.9,6.5-6.6s-2.9-6.5-6.6-6.5c-3.6,0-6.5,2.9-6.5,6.6C1198.3-272.5,1201.2-269.6,1204.9-269.6
			C1204.9-269.6,1204.9-269.6,1204.9-269.6L1204.9-269.6z M1211.4-283.9c-0.7,0-1.3,0.6-1.3,1.3s0.6,1.3,1.3,1.3
			c0.7,0,1.3-0.6,1.3-1.3C1212.8-283.4,1212.2-283.9,1211.4-283.9L1211.4-283.9z"/>
		<path id="Path_162453" class="st1" d="M1209.1-276.1c0,2.3-1.9,4.2-4.2,4.2c-2.3,0-4.2-1.9-4.2-4.2c0-2.3,1.9-4.2,4.2-4.2
			c0,0,0,0,0,0C1207.2-280.3,1209.1-278.5,1209.1-276.1C1209.1-276.1,1209.1-276.1,1209.1-276.1z"/>
	</g>
</g>
</svg>
