<?xml version="1.0" encoding="utf-8"?>
<!-- Generator: Adobe Illustrator 24.0.1, SVG Export Plug-In . SVG Version: 6.00 Build 0)  -->
<svg version="1.1" id="Layer_1" xmlns="http://www.w3.org/2000/svg" xmlns:xlink="http://www.w3.org/1999/xlink" x="0px" y="0px"
	 viewBox="0 0 30 30" style="enable-background:new 0 0 30 30;" xml:space="preserve">
<style type="text/css">
	.st0{fill:none;}
	.st1{fill:#FFFFFF;}
</style>
<g id="Linkdin" transform="translate(22 595)">
	<path id="Rectangle_22520" class="st0" d="M-21-595H7c0.6,0,1,0.4,1,1v28c0,0.6-0.4,1-1,1h-28c-0.6,0-1-0.4-1-1v-28
		C-22-594.6-21.6-595-21-595z"/>
	<g id="Group_56507" transform="translate(6 6.396)">
		<path id="Path_160954" class="st1" d="M-18-593.1c0,1-0.8,1.9-1.9,1.9c-0.1,0-0.1,0-0.2,0c-1-0.1-1.8-1-1.7-2c0.1-1,1-1.8,2-1.7
			C-18.7-594.9-18-594.1-18-593.1z M-21.9-577.5v-12.2h3.8v12.2H-21.9z"/>
		<path id="Path_160955" class="st1" d="M-15.8-585.8c0-1.5,0-2.8-0.1-3.9h3.3l0.2,1.7h0.1c0.8-1.3,2.3-2,3.8-2
			c2.5,0,4.4,1.7,4.4,5.3v7.2h-3.8v-6.8c0-1.6-0.5-2.6-1.9-2.6c-0.9,0-1.7,0.6-1.9,1.4c-0.1,0.3-0.1,0.6-0.1,0.9v7h-3.8V-585.8z"/>
	</g>
</g>
</svg>
